<?xml version="1.0" encoding="utf-8"?>
<!-- Generator: Adobe Illustrator 23.0.2, SVG Export Plug-In . SVG Version: 6.00 Build 0)  -->
<svg version="1.1" id="Layer_1" xmlns="http://www.w3.org/2000/svg" xmlns:xlink="http://www.w3.org/1999/xlink" x="0px" y="0px"
	 viewBox="0 0 754 278.8" style="enable-background:new 0 0 754 278.8;" xml:space="preserve">
<style type="text/css">
	.st0{fill-rule:evenodd;clip-rule:evenodd;fill:#FFFFFF;}
	.st1{fill-rule:evenodd;clip-rule:evenodd;fill:#15003E;}
	.st2{fill-rule:evenodd;clip-rule:evenodd;fill:#0FCE7C;}
	.st3{fill-rule:evenodd;clip-rule:evenodd;fill:#EFF4EE;}
	.st4{fill-rule:evenodd;clip-rule:evenodd;fill:#FFFFFF;filter:url(#Adobe_OpacityMaskFilter);}
	.st5{mask:url(#a_1_);fill-rule:evenodd;clip-rule:evenodd;fill:#25E899;}
	.st6{fill-rule:evenodd;clip-rule:evenodd;fill:#25E899;}
	.st7{fill:#0FCE7C;}
</style>
<g>
	<path class="st0" d="M170,121.3l12,23.7l-9.1,38.7L151.2,166l3.8-28.4L170,121.3z"/>
	<path class="st1" d="M137.9,113.4c-2.5,0-4.5-2-4.5-4.5V73.2c0-2.5,2-4.5,4.5-4.5c2.5,0,4.5,2,4.5,4.5v35.7
		C142.4,111.4,140.4,113.4,137.9,113.4"/>
	<path class="st0" d="M131.2,108.9h14"/>
	<path class="st1" d="M145.2,113.4h-14c-2.5,0-4.5-2.1-4.4-4.6c0-2.4,2-4.4,4.4-4.4h14c2.5,0,4.5,2.1,4.5,4.6
		C149.6,111.4,147.6,113.4,145.2,113.4"/>
	<path class="st0" d="M170,121.3l14.9-14c-11.4-11.4-27.1-18.4-44.5-18.4c-34.7,0-62.9,28.2-62.9,62.9c0,34.7,28.2,62.9,62.9,62.9
		c12.9,0,24.3,4.7,34.3-2l12.4,1.7l-0.4-20.2L151.2,166l7.7-36.1L170,121.3"/>
	<path class="st1" d="M140.4,220.8c-38.1,0-69.1-31-69.1-69.1c0-38.1,31-69.1,69.1-69.1c18.4,0,35.8,7.2,48.8,20.2l4.5,4.5
		l-19.5,18.4l-8.5-9l10-9.4c-10-8-22.4-12.4-35.4-12.4c-31.3,0-56.7,25.4-56.7,56.7c0,31.3,25.4,56.7,56.7,56.7"/>
	<path class="st2" d="M175.1,185.4l-8.9-8.6c6.5-6.7,10.1-15.6,10.1-25c0-9.8-3.9-18.9-10.9-25.8l-4.6-4.5l5-4.7l4.2,4.5l4-4.2
		c9.4,9.2,14.6,21.5,14.6,34.6C188.7,164.4,183.8,176.3,175.1,185.4"/>
	<path class="st3" d="M126.2,151.8c0-7.8,6.4-14.2,14.2-14.2c7.8,0,14.2,6.4,14.2,14.2c0,7.8-6.4,14.2-14.2,14.2
		C132.6,166,126.2,159.6,126.2,151.8"/>
	<path class="st1" d="M140.4,143.7c-4.4,0-8,3.6-8,8c0,4.4,3.6,8,8,8c4.4,0,8-3.6,8-8C148.4,147.3,144.8,143.7,140.4,143.7
		 M140.4,172.1c-11.2,0-20.4-9.1-20.4-20.4c0-11.2,9.1-20.4,20.4-20.4c11.2,0,20.4,9.1,20.4,20.4C160.8,163,151.6,172.1,140.4,172.1
		 M184.9,107.3L149,140.5"/>
	<path class="st1" d="M153.2,145l-8.4-9.1l35.9-33.2l8.4,9.1L153.2,145z"/>
	<path class="st0" d="M147.1,164.3l25.8,19.4l13.9,10.5v26.6l-28-1.3"/>
	<path class="st1" d="M193,220.8h-53.7v-12.3h41.4v-11.2l-37.3-28.1l7.4-9.9l42.2,31.8L193,220.8z"/>
	<defs>
		<filter id="Adobe_OpacityMaskFilter" filterUnits="userSpaceOnUse" x="197.4" y="71.6" width="9.9" height="9.9">
			<feColorMatrix  type="matrix" values="1 0 0 0 0  0 1 0 0 0  0 0 1 0 0  0 0 0 1 0"/>
		</filter>
	</defs>
	<mask maskUnits="userSpaceOnUse" x="197.4" y="71.6" width="9.9" height="9.9" id="a_1_">
		<path class="st4" d="M71.6,29h9.9v9.9h-9.9V29z"/>
	</mask>
	<path class="st5" d="M207.3,76.6l-4.9,4.9l-4.9-4.9l4.9-4.9L207.3,76.6z"/>
	<path class="st6" d="M180.9,52.7l-2.4,2.4l-2.4-2.4l2.4-2.4L180.9,52.7z M205.4,32c0-2-1.6-3.6-3.6-3.6c-2,0-3.6,1.6-3.6,3.6
		c0,0,0,0,0,0c0,2,1.6,3.6,3.6,3.6C203.8,35.5,205.4,33.9,205.4,32"/>
	<path class="st1" d="M116.5,125.8c-2.5,0-4.5-2-4.5-4.5V73.2c0-2.5,2-4.5,4.5-4.5c2.5,0,4.5,2,4.5,4.5v48.1
		C121,123.8,119,125.8,116.5,125.8"/>
</g>
<g>
	<path class="st7" d="M252.6,105.7c6.9-1,15.2-1.8,24.2-1.8c16.3,0,28,3.8,35.7,11c7.8,7.2,12.4,17.4,12.4,31.6
		c0,14.4-4.4,26.1-12.7,34.2c-8.2,8.2-21.8,12.7-38.9,12.7c-8.1,0-14.9-0.4-20.6-1V105.7z M263.9,183.6c2.9,0.5,7.1,0.7,11.5,0.7
		c24.3,0,37.5-13.6,37.5-37.4c0.1-20.8-11.6-34-35.7-34c-5.9,0-10.3,0.5-13.3,1.2V183.6z"/>
	<path class="st7" d="M396.9,160.4c0,23.4-16.2,33.6-31.5,33.6c-17.1,0-30.3-12.5-30.3-32.5c0-21.2,13.9-33.6,31.4-33.6
		C384.7,127.9,396.9,141.1,396.9,160.4z M346.8,161.1c0,13.9,8,24.3,19.2,24.3c11,0,19.2-10.3,19.2-24.6c0-10.7-5.4-24.3-18.9-24.3
		C352.6,136.5,346.8,149.1,346.8,161.1z"/>
	<path class="st7" d="M411.5,146.4c0-6.5-0.1-11.9-0.5-17.1h10.2l0.7,10.5h0.3c3.1-6,10.5-11.9,20.9-11.9c8.8,0,22.3,5.2,22.3,26.9
		v37.8h-11.5v-36.5c0-10.2-3.8-18.7-14.6-18.7c-7.6,0-13.5,5.4-15.4,11.8c-0.5,1.4-0.8,3.4-0.8,5.4v38h-11.5V146.4z"/>
	<path class="st7" d="M519,192.6l-0.9-8h-0.4c-3.5,5-10.3,9.4-19.3,9.4c-12.8,0-19.3-9-19.3-18.2c0-15.3,13.6-23.7,38-23.5V151
		c0-5.2-1.4-14.6-14.4-14.6c-5.9,0-12,1.8-16.5,4.7l-2.6-7.6c5.2-3.4,12.8-5.6,20.8-5.6c19.3,0,24,13.2,24,25.9v23.7
		c0,5.5,0.3,10.8,1,15.2H519z M517.3,160.3c-12.5-0.3-26.8,2-26.8,14.2c0,7.4,5,11,10.8,11c8.2,0,13.5-5.2,15.3-10.6
		c0.4-1.2,0.7-2.5,0.7-3.7V160.3z"/>
	<path class="st7" d="M560.3,111.2v18.2h16.5v8.8h-16.5v34.1c0,7.8,2.2,12.3,8.6,12.3c3,0,5.2-0.4,6.7-0.8l0.5,8.6
		c-2.2,0.9-5.8,1.6-10.2,1.6c-5.4,0-9.7-1.7-12.4-4.8c-3.3-3.4-4.4-9-4.4-16.5v-34.5h-9.8v-8.8h9.8v-15.2L560.3,111.2z"/>
	<path class="st7" d="M595.3,163c0.3,15.6,10.2,22,21.7,22c8.2,0,13.2-1.4,17.5-3.3l2,8.2c-4.1,1.8-11,3.9-21,3.9
		c-19.5,0-31.1-12.8-31.1-31.9c0-19.1,11.2-34.1,29.7-34.1c20.6,0,26.1,18.2,26.1,29.8c0,2.4-0.3,4.2-0.4,5.4H595.3z M629,154.8
		c0.1-7.3-3-18.7-15.9-18.7c-11.6,0-16.7,10.7-17.6,18.7H629z"/>
</g>
</svg>
