<?xml version="1.0" encoding="utf-8"?>
<!-- Generator: Adobe Illustrator 23.0.2, SVG Export Plug-In . SVG Version: 6.00 Build 0)  -->
<svg version="1.1" id="Layer_1" xmlns="http://www.w3.org/2000/svg" xmlns:xlink="http://www.w3.org/1999/xlink"
	 viewBox="0 -8 200 278.8" style="enable-background:new 0 0 754 278.8;" xml:space="preserve">
<style type="text/css">
	.st0{fill-rule:evenodd;clip-rule:evenodd;fill:#FFFFFF;}
	.st1{fill-rule:evenodd;clip-rule:evenodd;fill:#15003E;}
	.st2{fill-rule:evenodd;clip-rule:evenodd;fill:#0FCE7C;}
	.st3{fill-rule:evenodd;clip-rule:evenodd;fill:#EFF4EE;}
	.st4{fill-rule:evenodd;clip-rule:evenodd;fill:#FFFFFF;filter:url(#Adobe_OpacityMaskFilter);}
	.st5{mask:url(#a_1_);fill-rule:evenodd;clip-rule:evenodd;fill:#25E899;}
	.st6{fill-rule:evenodd;clip-rule:evenodd;fill:#25E899;}
	.st7{fill:#0FCE7C;}
</style>
<g>
	<path class="st0" d="M170,121.3l12,23.7l-9.1,38.7L151.2,166l3.8-28.4L170,121.3z"/>
	<path class="st1" d="M137.9,113.4c-2.5,0-4.5-2-4.5-4.5V73.2c0-2.5,2-4.5,4.5-4.5c2.5,0,4.5,2,4.5,4.5v35.7
		C142.4,111.4,140.4,113.4,137.9,113.4"/>
	<path class="st0" d="M131.2,108.9h14"/>
	<path class="st1" d="M145.2,113.4h-14c-2.5,0-4.5-2.1-4.4-4.6c0-2.4,2-4.4,4.4-4.4h14c2.5,0,4.5,2.1,4.5,4.6
		C149.6,111.4,147.6,113.4,145.2,113.4"/>
	<path class="st0" d="M170,121.3l14.9-14c-11.4-11.4-27.1-18.4-44.5-18.4c-34.7,0-62.9,28.2-62.9,62.9c0,34.7,28.2,62.9,62.9,62.9
		c12.9,0,24.3,4.7,34.3-2l12.4,1.7l-0.4-20.2L151.2,166l7.7-36.1L170,121.3"/>
	<path class="st1" d="M140.4,220.8c-38.1,0-69.1-31-69.1-69.1c0-38.1,31-69.1,69.1-69.1c18.4,0,35.8,7.2,48.8,20.2l4.5,4.5
		l-19.5,18.4l-8.5-9l10-9.4c-10-8-22.4-12.4-35.4-12.4c-31.3,0-56.7,25.4-56.7,56.7c0,31.3,25.4,56.7,56.7,56.7"/>
	<path class="st2" d="M175.1,185.4l-8.9-8.6c6.5-6.7,10.1-15.6,10.1-25c0-9.8-3.9-18.9-10.9-25.8l-4.6-4.5l5-4.7l4.2,4.5l4-4.2
		c9.4,9.2,14.6,21.5,14.6,34.6C188.7,164.4,183.8,176.3,175.1,185.4"/>
	<path class="st3" d="M126.2,151.8c0-7.8,6.4-14.2,14.2-14.2c7.8,0,14.2,6.4,14.2,14.2c0,7.8-6.4,14.2-14.2,14.2
		C132.6,166,126.2,159.6,126.2,151.8"/>
	<path class="st1" d="M140.4,143.7c-4.4,0-8,3.6-8,8c0,4.4,3.6,8,8,8c4.4,0,8-3.6,8-8C148.4,147.3,144.8,143.7,140.4,143.7
		 M140.4,172.1c-11.2,0-20.4-9.1-20.4-20.4c0-11.2,9.1-20.4,20.4-20.4c11.2,0,20.4,9.1,20.4,20.4C160.8,163,151.6,172.1,140.4,172.1
		 M184.9,107.3L149,140.5"/>
	<path class="st1" d="M153.2,145l-8.4-9.1l35.9-33.2l8.4,9.1L153.2,145z"/>
	<path class="st0" d="M147.1,164.3l25.8,19.4l13.9,10.5v26.6l-28-1.3"/>
	<path class="st1" d="M193,220.8h-53.7v-12.3h41.4v-11.2l-37.3-28.1l7.4-9.9l42.2,31.8L193,220.8z"/>
	<defs>
		<filter id="Adobe_OpacityMaskFilter" filterUnits="userSpaceOnUse" x="197.4" y="71.6" width="9.9" height="9.9">
			<feColorMatrix  type="matrix" values="1 0 0 0 0  0 1 0 0 0  0 0 1 0 0  0 0 0 1 0"/>
		</filter>
	</defs>
	<mask maskUnits="userSpaceOnUse" x="197.4" y="71.6" width="9.9" height="9.9" id="a_1_">
		<path class="st4" d="M71.6,29h9.9v9.9h-9.9V29z"/>
	</mask>
	<path class="st5" d="M207.3,76.6l-4.9,4.9l-4.9-4.9l4.9-4.9L207.3,76.6z"/>
	<path class="st6" d="M180.9,52.7l-2.4,2.4l-2.4-2.4l2.4-2.4L180.9,52.7z M205.4,32c0-2-1.6-3.6-3.6-3.6c-2,0-3.6,1.6-3.6,3.6
		c0,0,0,0,0,0c0,2,1.6,3.6,3.6,3.6C203.8,35.5,205.4,33.9,205.4,32"/>
	<path class="st1" d="M116.5,125.8c-2.5,0-4.5-2-4.5-4.5V73.2c0-2.5,2-4.5,4.5-4.5c2.5,0,4.5,2,4.5,4.5v48.1
		C121,123.8,119,125.8,116.5,125.8"/>
</g>
</svg>
